<?xml version="1.0" encoding="UTF-8"?>
<svg version="1.1" xmlns="http://www.w3.org/2000/svg" width="446" height="753">
<path d="M0 0 C0.90534485 0.00298096 1.8106897 0.00596191 2.74346924 0.0090332 C25.79338162 0.14511375 46.79215029 3.93032388 67.79638672 13.76464844 C74.90231842 16.99745289 82.35586327 18.81009151 89.9375 20.5 C95.90678262 21.83651693 101.63976598 23.49205065 107.375 25.625 C108.34518066 25.98053955 108.34518066 25.98053955 109.33496094 26.34326172 C117.78278912 29.60246835 124.0889925 34.26371153 128.046875 42.4296875 C129.19115465 45.68839695 129.79143344 48.16808336 129.6875 51.625 C127.46983348 55.59910895 124.30714149 57.94342028 120.6875 60.625 C119.80964844 61.32882813 118.93179687 62.03265625 118.02734375 62.7578125 C90.38096994 83.5204997 54.14588938 93.21849573 20.6875 99.625 C19.82092773 99.80836914 18.95435547 99.99173828 18.06152344 100.18066406 C15.13000751 100.72934351 12.35485762 100.72024569 9.375 100.6875 C8.30636719 100.67847656 7.23773438 100.66945313 6.13671875 100.66015625 C5.32847656 100.64855469 4.52023438 100.63695313 3.6875 100.625 C3.6875 101.285 3.6875 101.945 3.6875 102.625 C4.42484375 102.87765625 5.1621875 103.1303125 5.921875 103.390625 C8.87199471 104.7073451 10.61191938 106.15277852 12.9375 108.375 C19.3086269 114.1697914 25.12746131 118.18112512 33.3125 121 C37.61373028 122.55418447 40.24076143 123.71049943 43 127.375 C46.16543153 131.56939315 49.7547526 133.58342279 54.3125 136 C62.12098352 140.15669649 68.87847388 144.99809647 75.6875 150.625 C76.38875 151.19605469 77.09 151.76710937 77.8125 152.35546875 C80.9099428 154.96893611 83.80989883 157.73124929 86.640625 160.62890625 C87.73954581 161.75264086 88.83850533 162.87633762 89.9375 164 C90.49348877 164.57097412 91.04947754 165.14194824 91.62231445 165.73022461 C95.13996511 169.27524998 98.7288776 172.18255775 102.875 175 C109.64306018 179.82794253 113.34879455 186.04607937 117.65039062 192.99267578 C120.62160089 197.66911453 123.82393967 201.10254375 128.45703125 204.09765625 C133.76281594 208.02735141 136.2721869 213.22841664 139.25 219 C142.72969745 225.64344691 146.11091496 231.31911217 151.21655273 236.82324219 C153.4059938 239.50508037 154.11349365 242.23276525 154.9375 245.5625 C156.91025274 252.62132573 160.24412903 258.12230242 164.67871094 263.93530273 C168.325536 269.0225082 169.7359621 274.17296565 171.09512329 280.19094849 C172.78745508 287.50832991 175.46764055 294.32508672 178.2611084 301.28173828 C182.8967525 312.84956006 187.15405887 324.29883416 189.953125 336.46875 C190.53041926 339.50490817 190.53041926 339.50490817 191.6875 341.625 C191.64543412 343.66519537 191.59835535 345.70545752 191.52124023 347.74462891 C191.21339818 356.95476055 192.27024971 364.29343084 195.49609375 372.9140625 C197.71333102 379.82021138 197.84051829 386.93268864 197.8203125 394.140625 C197.82174759 395.30715607 197.82174759 395.30715607 197.82321167 396.49725342 C197.82388692 398.13081952 197.8220788 399.7643884 197.81787109 401.39794922 C197.81254292 403.85520689 197.8178235 406.31227936 197.82421875 408.76953125 C197.83769371 433.31781573 197.83769371 433.31781573 195 440.25 C192.95449991 445.58993533 194.45691346 450.21890604 195.6875 455.625 C196.21880148 459.87541185 195.36738557 462.55687971 193.796875 466.4453125 C191.36407961 473.02435277 190.43028241 479.56528664 189.5625 486.5 C189.24807417 488.87248583 188.93297291 491.24488225 188.6171875 493.6171875 C188.46604492 494.7724292 188.31490234 495.9276709 188.15917969 497.11791992 C186.15540743 512.01656821 186.15540743 512.01656821 184.6875 517.0625 C183.72994426 520.47379232 183.36817676 523.54700576 183 527.0625 C182.13126131 533.60931476 180.10158811 538.82671564 177.35888672 544.74536133 C173.78479131 552.46388653 171.51691275 560.39436806 169.39453125 568.62109375 C166.69512308 578.98175858 163.6054907 588.83231525 159.43847656 598.70166016 C157.52110083 603.30465619 156.10331556 607.63482144 155.1875 612.5625 C153.9775608 618.68290673 151.26234273 623.20307873 147.8203125 628.359375 C141.87299512 637.46552396 139.02457696 645.86233372 136.63476562 656.47460938 C134.90155711 663.35315014 132.86440819 667.0796849 127.57104492 671.78930664 C124.65106576 674.63510357 123.37744569 677.78283574 122 681.5625 C121.57920166 682.65558472 121.57920166 682.65558472 121.14990234 683.77075195 C120.29383922 686.04456292 119.48240758 688.32914585 118.6875 690.625 C118.43307129 691.35525391 118.17864258 692.08550781 117.91650391 692.83789062 C114.25544694 703.60144636 110.66867001 715.31000758 114 726.5625 C115.82028741 733.65452885 111.58853971 740.31007188 108.6875 746.625 C108.3575 747.615 108.0275 748.605 107.6875 749.625 C98.65293609 753.87228349 87.54423804 755.45610799 77.6875 753.625 C72.59899146 751.22514028 68.94292117 747.15616499 65.15869141 743.09423828 C61.33257316 739.27319952 56.20073113 736.48939919 51.109375 734.73828125 C48.20319948 733.40237799 47.26542048 732.07428483 45.5 729.4375 C39.39356344 721.19381065 31.14347205 716.49514481 21.3203125 714.03125 C16.5130352 712.77327089 13.27074831 711.44668 9.4375 708.25 C4.38117191 704.46171657 -0.61765577 703.37014973 -6.6875 702.125 C-17.66273553 699.87055772 -27.86674422 696.65288921 -38.3125 692.625 C-39.38790039 692.21443359 -40.46330078 691.80386719 -41.57128906 691.38085938 C-61.04831653 683.88842921 -76.49040796 677.47908931 -90.5324707 661.86499023 C-95.97256236 655.82868753 -101.63697558 651.27419502 -108.3125 646.625 C-119.23497516 638.2454854 -128.30258387 628.70113822 -136.875 617.9375 C-139.55342469 614.605801 -142.180125 611.75122006 -145.5 609.0625 C-148.59107073 606.53012968 -150.2992032 604.1424156 -152.1875 600.625 C-154.31592491 596.79497335 -156.04733066 594.90122334 -159.8125 592.6875 C-171.31896851 585.33033377 -178.91804946 571.62250837 -183.640625 559.16015625 C-187.76199637 550.44557427 -194.59782697 542.91725938 -200.875 535.6640625 C-206.35622867 529.32639185 -209.97028551 522.86546932 -213.48828125 515.32421875 C-214.65821658 512.83655337 -215.84382838 510.85063808 -217.421875 508.55078125 C-219.46764733 505.38490631 -220.34198163 502.77381115 -221.25 499.125 C-221.40984375 498.49770996 -221.5696875 497.87041992 -221.734375 497.22412109 C-222.74424555 493.189457 -223.64686369 489.13326128 -224.53515625 485.0703125 C-224.85335327 483.62688477 -224.85335327 483.62688477 -225.17797852 482.15429688 C-225.59084769 480.26453478 -225.99419732 478.3726593 -226.38647461 476.47851562 C-227.32337382 472.15110189 -228.37478079 468.26339403 -230.3125 464.2734375 C-233.44307729 457.64078383 -234.18556277 450.39527082 -235.37890625 443.21875 C-236.26369709 438.20298204 -237.09661026 433.69322572 -239.3984375 429.125 C-242.11889501 423.52571094 -242.1491206 417.75833743 -242.4375 411.625 C-242.97786844 401.48075712 -242.97786844 401.48075712 -244.88134766 391.52734375 C-245.98727261 386.64774737 -245.53857437 382.2551829 -244.18359375 377.4921875 C-242.97230411 372.20754403 -243.83551156 367.94070268 -245.125 362.75 C-245.41213867 361.48929687 -245.41213867 361.48929687 -245.70507812 360.203125 C-246.45590999 356.95038628 -247.25619209 353.79392373 -248.3125 350.625 C-248.3006546 348.5816677 -248.2018129 346.53861206 -248.0625 344.5 C-248.01947754 343.86908447 -247.97645508 343.23816895 -247.93212891 342.58813477 C-247.34050354 334.78869205 -246.29556028 327.03114432 -245.24121094 319.28271484 C-244.57519697 314.13835878 -244.07345803 309.73305044 -245.3125 304.625 C-245.77091456 298.94065945 -245.30617309 296.19776657 -242.4453125 291.15625 C-240.66181056 287.17104567 -239.86251822 282.88956737 -239.05957031 278.61132812 C-238.19891497 274.60544034 -237.0429148 272.07814648 -234.3984375 268.92578125 C-230.29989031 263.81786246 -229.24665471 258.09323281 -227.8125 251.8125 C-225.25975135 240.74845119 -221.84918983 231.57592458 -214.375 222.875 C-205.50056108 212.0340661 -201.92886091 198.67010598 -197.72998047 185.54614258 C-195.18959022 177.77588789 -192.12437166 171.0161814 -188.01953125 163.98046875 C-185.58604433 159.1970242 -184.52579185 154.40366593 -183.4921875 149.16015625 C-182.37744663 145.81962483 -181.5371681 144.5396112 -179.33984375 141.953125 C-175.32275644 136.88669847 -174.78026719 131.59427311 -174 125.3125 C-173.84104248 124.17055176 -173.68208496 123.02860352 -173.51831055 121.85205078 C-172.40380407 113.46537487 -171.74091269 105.10232421 -171.48828125 96.6484375 C-171.2382493 90.07378791 -170.94925254 84.74351482 -167 79.1875 C-164.68544183 75.81791231 -162.93339232 72.86447834 -161.625 69 C-159.40189239 63.58721625 -154.95510952 61.01186621 -150.28125 57.76171875 C-147.71773491 55.9166625 -145.65069712 54.10494761 -143.5 51.8125 C-137.86684332 45.97719654 -132.24829288 44.1652409 -124.5 42.421875 C-121.26725472 41.61368868 -118.24581075 40.53734278 -115.125 39.375 C-111.23278376 38.00993329 -108.62211946 37.44242404 -104.5625 38.1875 C-100.12470892 38.95236166 -98.00067917 37.83503824 -94.3828125 35.28125 C-92.93622594 34.12398076 -91.51597739 32.93335759 -90.1171875 31.71875 C-84.92803639 27.26601307 -80.19741774 24.52075987 -73.75561523 22.20214844 C-67.44886338 19.86085887 -61.70488409 16.66234052 -55.8125 13.4375 C-48.12300592 9.27918984 -41.51208838 6.2633118 -32.76171875 5.25 C-29.65623373 4.68728471 -27.8763185 3.95238701 -25.1015625 2.6015625 C-17.13826165 -0.69772225 -8.47483128 -0.06841205 0 0 Z " fill="#F3CD14" transform="translate(248.3125,-0.625)"/>
<path d="M0 0 C3.34071037 2.78527345 6.32353829 5.84455799 9.3125 9 C10.08400391 9.7940625 10.85550781 10.588125 11.65039062 11.40625 C13.13144974 12.93180445 14.60717417 14.4625622 16.07666016 15.99926758 C17.62501319 17.60992423 19.20429405 19.19081943 20.79296875 20.76171875 C23.01202888 23.01219921 24.98648027 25.3781861 27 27.8125 C30.47746959 31.74631526 33.78761458 34.21658644 38.375 36.75 C45.73327284 40.97435267 49.85242914 46.66050653 54.79931641 53.41552734 C58.95082961 58.89403908 64.11458551 63.11069309 69.5 67.3125 C78.18956457 74.34347548 83.23737956 82.71371902 87.62109375 92.890625 C88.84960888 95.66087441 90.24101131 98.19046718 91.75 100.8125 C94.26986356 105.73185148 94.80168483 110.70347546 95.33300781 116.12084961 C95.70783594 119.89444514 96.24911026 123.29572142 97.5 126.875 C99.31421623 132.24471537 99.75982095 137.70174389 100.265625 143.31787109 C100.61524437 147.06226161 101.10970949 150.58067655 102.05859375 154.22265625 C103.46797641 160.23415784 103.12601317 166.23832552 103 172.375 C102.9117582 180.90597133 102.95315055 189.32494953 103.875 197.8125 C103.95363281 198.55097168 104.03226563 199.28944336 104.11328125 200.05029297 C104.65598697 204.52657147 105.75503477 208.67705689 107 213 C106.81294805 216.1798831 106.22978346 218.45426429 105 221.375 C102.19163197 223.65679902 100.07157071 223.55505198 96.5234375 223.3828125 C90.1176415 222.4110354 84.70962297 219.52059038 79.3125 216.0625 C74.16910962 212.81957619 68.82022027 211.23465882 63.00390625 209.6640625 C59.54172468 208.46934441 57.10234614 206.62273504 54.234375 204.36328125 C46.48938377 198.51815531 37.60797901 195.2324717 28.6875 191.5625 C17.86065083 187.10293531 7.68105824 182.65065322 -1.97045898 175.96069336 C-5.12882376 173.91662635 -8.28203703 172.44580313 -11.75 171 C-26.70042775 164.37754111 -35.7991938 150.13279776 -44.4375 136.875 C-45.05334961 135.94469971 -45.66919922 135.01439941 -46.30371094 134.0559082 C-49.90731963 128.40634416 -52.02271415 123.61441714 -53 117 C-53.26590658 115.64719825 -53.53786816 114.29557004 -53.81640625 112.9453125 C-54.31683716 110.38289662 -54.81683198 107.82039553 -55.31640625 105.2578125 C-55.93279311 102.01051007 -55.93279311 102.01051007 -57 99 C-58.52910159 86.15239389 -56.0937429 74.04819491 -53.3125 61.5625 C-53.14259552 60.78609161 -52.97269104 60.00968323 -52.79763794 59.20974731 C-47.57860811 35.62321493 -47.57860811 35.62321493 -40 26.5625 C-36.97940269 22.64419246 -35.09189731 19.10038879 -33.4375 14.4375 C-31.05695782 7.77991704 -28.1882162 0.66227696 -21.984375 -3.28125 C-13.57795155 -6.74649325 -7.47312338 -4.58762238 0 0 Z " fill="#4A5E56" transform="translate(152,55)"/>
<path d="M0 0 C0.90534485 0.00298096 1.8106897 0.00596191 2.74346924 0.0090332 C25.79338162 0.14511375 46.79215029 3.93032388 67.79638672 13.76464844 C74.90231842 16.99745289 82.35586327 18.81009151 89.9375 20.5 C95.90678262 21.83651693 101.63976598 23.49205065 107.375 25.625 C108.34518066 25.98053955 108.34518066 25.98053955 109.33496094 26.34326172 C117.78278912 29.60246835 124.0889925 34.26371153 128.046875 42.4296875 C129.19115465 45.68839695 129.79143344 48.16808336 129.6875 51.625 C127.46983348 55.59910895 124.30714149 57.94342028 120.6875 60.625 C119.80964844 61.32882813 118.93179688 62.03265625 118.02734375 62.7578125 C90.63639525 83.32867288 53.97777295 93.69612258 20.6875 99.625 C19.82560059 99.78210449 18.96370117 99.93920898 18.07568359 100.10107422 C8.94358793 101.69713418 1.50414653 101.98974602 -7.3125 98.625 C-8.38628906 98.28210938 -9.46007812 97.93921875 -10.56640625 97.5859375 C-17.06748363 95.45038806 -22.93968234 92.84969524 -28.875 89.5 C-34.58582048 86.28213831 -39.81052045 84.5989867 -46.26953125 83.28515625 C-58.56072887 80.61864483 -64.7506639 73.37488179 -72.76757812 64.31298828 C-75.16997074 61.68812378 -77.83443149 59.44752031 -80.56640625 57.1796875 C-83.25708141 54.78396331 -85.54551217 52.07243443 -87.8671875 49.32421875 C-89.35502706 47.52881734 -89.35502706 47.52881734 -91.3125 45.625 C-87.12166493 44.62739849 -83.02535163 44.42852231 -78.73828125 44.34375 C-77.65247017 44.31613586 -77.65247017 44.31613586 -76.54472351 44.28796387 C-74.23822739 44.22952719 -71.93165739 44.17665059 -69.625 44.125 C-57.02198412 43.85999229 -57.02198412 43.85999229 -44.46313477 42.83007812 C-40.84832417 42.48538055 -37.251864 42.56616914 -33.625 42.625 C-24.61796549 42.69434565 -15.62638869 42.47972534 -6.625 42.1875 C-4.73938354 42.12852539 -4.73938354 42.12852539 -2.81567383 42.06835938 C4.94091144 41.80682688 4.94091144 41.80682688 12.68774414 41.35131836 C24.07966605 40.54546274 35.34036608 40.69905672 46.75 41.0625 C48.59958995 41.11591131 50.44919948 41.16864917 52.29882812 41.22070312 C56.76198156 41.34774047 61.22477412 41.48376842 65.6875 41.625 C65.6875 40.635 65.6875 39.645 65.6875 38.625 C64.86507812 38.64820313 64.04265625 38.67140625 63.1953125 38.6953125 C57.03675036 38.79487355 51.51994828 38.52631716 45.53515625 37.125 C41.18109842 36.36050151 36.77976679 36.24098473 32.36621094 36.14282227 C27.88217188 35.97501927 23.81801677 35.22347472 19.4609375 34.1328125 C12.80963646 32.52453571 6.44889112 32.07647742 -0.375 31.9375 C-2.11740967 31.88843506 -2.11740967 31.88843506 -3.89501953 31.83837891 C-7.36744433 31.74821703 -10.83936723 31.68092888 -14.3125 31.625 C-15.33682129 31.60840332 -16.36114258 31.59180664 -17.41650391 31.57470703 C-20.17359682 31.5373055 -22.93019272 31.51322512 -25.6875 31.5 C-26.49453369 31.49524658 -27.30156738 31.49049316 -28.13305664 31.4855957 C-31.06945014 31.49414001 -33.87006371 31.53445943 -36.75341797 32.12451172 C-39.29342118 32.62126869 -41.58763492 32.75039372 -44.171875 32.765625 C-55.28103399 32.95336664 -65.96112828 33.77418575 -76.875 35.9375 C-77.91430664 36.13827148 -78.95361328 36.33904297 -80.02441406 36.54589844 C-85.88612171 37.78509917 -90.21603229 39.52193557 -95.3125 42.625 C-98.6875 42.5 -98.6875 42.5 -101.3125 41.625 C-101.6425 40.965 -101.9725 40.305 -102.3125 39.625 C-101.79042969 39.36847656 -101.26835937 39.11195312 -100.73046875 38.84765625 C-96.0243607 36.39982071 -92.15917142 33.71258168 -88.1875 30.1875 C-83.60722767 26.33906181 -79.32123442 24.1500365 -73.70458984 22.15136719 C-67.40503065 19.84387066 -61.68755985 16.65480606 -55.8125 13.4375 C-48.12319671 9.27900563 -41.51196757 6.26329781 -32.76171875 5.25 C-29.65623373 4.68728471 -27.8763185 3.95238701 -25.1015625 2.6015625 C-17.13826165 -0.69772225 -8.47483128 -0.06841205 0 0 Z " fill="#495E56" transform="translate(248.3125,-0.625)"/>
<path d="M0 0 C0.66 0 1.32 0 2 0 C9.01915682 7.50181004 14.27961523 15.70067701 19 24.75 C21.62831091 29.72542699 24.53365531 34.36882932 27.67504883 39.03564453 C33.2937086 47.38737922 37.93239475 55.64694925 41.89355469 64.90039062 C45.91296657 74.27777893 50.9089793 82.83667653 56.5 91.375 C61.88613743 99.71919917 66.55077778 108.7807255 69.9375 118.125 C71.81155085 123.08082335 74.65738379 127.33612371 77.55981445 131.73193359 C84.64150014 142.46265249 84.64150014 142.46265249 87 148 C86.67 148.66 86.34 149.32 86 150 C71.0061297 138.79405483 59.82126437 126.79039101 50.1953125 110.63671875 C48.55886507 107.89262888 46.85378328 105.20135555 45.1171875 102.51953125 C38.7069834 92.60861136 32.99176743 82.68983888 28 72 C27.50854492 70.95569824 27.01708984 69.91139648 26.51074219 68.83544922 C22.6281334 60.5776963 18.79781979 52.29714769 15 44 C14.4124292 42.72068604 14.4124292 42.72068604 13.81298828 41.41552734 C7.66171743 27.96455361 3.00993734 14.51132393 0 0 Z " fill="#F1CC16" transform="translate(139,83)"/>
</svg>
